<svg id="visual" viewBox="0 0 1300 700" width="1300" height="700" xmlns="http://www.w3.org/2000/svg" xmlns:xlink="http://www.w3.org/1999/xlink" version="1.1"><path d="M0 315L10.3 307C20.7 299 41.3 283 62 289.5C82.7 296 103.3 325 124 368.3C144.7 411.7 165.3 469.3 186 526C206.7 582.7 227.3 638.3 248 629.2C268.7 620 289.3 546 309.8 523.2C330.3 500.3 350.7 528.7 371.2 485.2C391.7 441.7 412.3 326.3 433 311.7C453.7 297 474.3 383 495 426.5C515.7 470 536.3 471 557 431.7C577.7 392.3 598.3 312.7 619 337.2C639.7 361.7 660.3 490.3 681 545.7C701.7 601 722.3 583 743 533.5C763.7 484 784.3 403 805 388.3C825.7 373.7 846.3 425.3 867 418.8C887.7 412.3 908.3 347.7 928.8 326.5C949.3 305.3 969.7 327.7 990.2 386.2C1010.7 444.7 1031.3 539.3 1052 517.3C1072.7 495.3 1093.3 356.7 1114 327.5C1134.7 298.3 1155.3 378.7 1176 431.2C1196.7 483.7 1217.3 508.3 1238 501.5C1258.7 494.7 1279.3 456.3 1289.7 437.2L1300 418" fill="none" stroke-linecap="round" stroke-linejoin="miter" stroke="#0066FF" stroke-width="5"></path></svg>